<mxfile host="app.diagrams.net" modified="2020-10-28T07:08:41.491Z" agent="5.0 (Windows NT 10.0; Win64; x64) AppleWebKit/537.36 (KHTML, like Gecko) Chrome/86.0.4240.111 Safari/537.36" etag="cADMgkqa5wD8a7y2GvKX" version="13.8.5" type="github">
  <diagram id="mEcj0x4qeqSDA7KoBkTr" name="Page-1">
    <mxGraphModel dx="863" dy="1853" grid="1" gridSize="10" guides="1" tooltips="1" connect="1" arrows="1" fold="1" page="1" pageScale="1" pageWidth="850" pageHeight="1100" math="0" shadow="0">
      <root>
        <mxCell id="0" />
        <mxCell id="1" parent="0" />
        <mxCell id="_11a3jBoYcO6FcgvI_Gy-11" style="edgeStyle=orthogonalEdgeStyle;rounded=0;orthogonalLoop=1;jettySize=auto;html=1;entryX=0.5;entryY=1;entryDx=0;entryDy=0;endArrow=block;endFill=1;" edge="1" parent="1" source="_11a3jBoYcO6FcgvI_Gy-1" target="_11a3jBoYcO6FcgvI_Gy-5">
          <mxGeometry relative="1" as="geometry" />
        </mxCell>
        <mxCell id="_11a3jBoYcO6FcgvI_Gy-1" value="NioEventLoopGroup" style="swimlane;fontStyle=1;align=center;verticalAlign=top;childLayout=stackLayout;horizontal=1;startSize=26;horizontalStack=0;resizeParent=1;resizeParentMax=0;resizeLast=0;collapsible=1;marginBottom=0;" vertex="1" parent="1">
          <mxGeometry x="455" y="540" width="160" height="34" as="geometry" />
        </mxCell>
        <mxCell id="_11a3jBoYcO6FcgvI_Gy-3" value="" style="line;strokeWidth=1;fillColor=none;align=left;verticalAlign=middle;spacingTop=-1;spacingLeft=3;spacingRight=3;rotatable=0;labelPosition=right;points=[];portConstraint=eastwest;" vertex="1" parent="_11a3jBoYcO6FcgvI_Gy-1">
          <mxGeometry y="26" width="160" height="8" as="geometry" />
        </mxCell>
        <mxCell id="_11a3jBoYcO6FcgvI_Gy-12" style="edgeStyle=orthogonalEdgeStyle;rounded=0;orthogonalLoop=1;jettySize=auto;html=1;entryX=0.5;entryY=1;entryDx=0;entryDy=0;endArrow=block;endFill=1;" edge="1" parent="1" source="_11a3jBoYcO6FcgvI_Gy-5" target="_11a3jBoYcO6FcgvI_Gy-7">
          <mxGeometry relative="1" as="geometry">
            <Array as="points">
              <mxPoint x="480" y="412" />
              <mxPoint x="365" y="412" />
            </Array>
          </mxGeometry>
        </mxCell>
        <mxCell id="_11a3jBoYcO6FcgvI_Gy-27" style="edgeStyle=orthogonalEdgeStyle;rounded=0;orthogonalLoop=1;jettySize=auto;html=1;exitX=0.75;exitY=0;exitDx=0;exitDy=0;entryX=0.5;entryY=1;entryDx=0;entryDy=0;endArrow=block;endFill=1;dashed=1;" edge="1" parent="1" source="_11a3jBoYcO6FcgvI_Gy-5" target="_11a3jBoYcO6FcgvI_Gy-14">
          <mxGeometry relative="1" as="geometry" />
        </mxCell>
        <mxCell id="_11a3jBoYcO6FcgvI_Gy-5" value="MultithreadEventLoopGroup" style="swimlane;fontStyle=1;align=center;verticalAlign=top;childLayout=stackLayout;horizontal=1;startSize=26;horizontalStack=0;resizeParent=1;resizeParentMax=0;resizeLast=0;collapsible=1;marginBottom=0;" vertex="1" parent="1">
          <mxGeometry x="450" y="450" width="170" height="34" as="geometry" />
        </mxCell>
        <mxCell id="_11a3jBoYcO6FcgvI_Gy-6" value="" style="line;strokeWidth=1;fillColor=none;align=left;verticalAlign=middle;spacingTop=-1;spacingLeft=3;spacingRight=3;rotatable=0;labelPosition=right;points=[];portConstraint=eastwest;" vertex="1" parent="_11a3jBoYcO6FcgvI_Gy-5">
          <mxGeometry y="26" width="170" height="8" as="geometry" />
        </mxCell>
        <mxCell id="_11a3jBoYcO6FcgvI_Gy-13" style="edgeStyle=orthogonalEdgeStyle;rounded=0;orthogonalLoop=1;jettySize=auto;html=1;entryX=0.5;entryY=1;entryDx=0;entryDy=0;endArrow=block;endFill=1;" edge="1" parent="1" source="_11a3jBoYcO6FcgvI_Gy-7" target="_11a3jBoYcO6FcgvI_Gy-9">
          <mxGeometry relative="1" as="geometry" />
        </mxCell>
        <mxCell id="_11a3jBoYcO6FcgvI_Gy-7" value="MultithreadEventExecutorGroup" style="swimlane;fontStyle=1;align=center;verticalAlign=top;childLayout=stackLayout;horizontal=1;startSize=26;horizontalStack=0;resizeParent=1;resizeParentMax=0;resizeLast=0;collapsible=1;marginBottom=0;" vertex="1" parent="1">
          <mxGeometry x="270" y="340" width="190" height="34" as="geometry" />
        </mxCell>
        <mxCell id="_11a3jBoYcO6FcgvI_Gy-8" value="" style="line;strokeWidth=1;fillColor=none;align=left;verticalAlign=middle;spacingTop=-1;spacingLeft=3;spacingRight=3;rotatable=0;labelPosition=right;points=[];portConstraint=eastwest;" vertex="1" parent="_11a3jBoYcO6FcgvI_Gy-7">
          <mxGeometry y="26" width="190" height="8" as="geometry" />
        </mxCell>
        <mxCell id="_11a3jBoYcO6FcgvI_Gy-25" style="edgeStyle=orthogonalEdgeStyle;rounded=0;orthogonalLoop=1;jettySize=auto;html=1;entryX=0.25;entryY=1;entryDx=0;entryDy=0;dashed=1;endArrow=block;endFill=1;" edge="1" parent="1" source="_11a3jBoYcO6FcgvI_Gy-9" target="_11a3jBoYcO6FcgvI_Gy-15">
          <mxGeometry relative="1" as="geometry">
            <Array as="points">
              <mxPoint x="365" y="220" />
              <mxPoint x="505" y="220" />
            </Array>
          </mxGeometry>
        </mxCell>
        <mxCell id="_11a3jBoYcO6FcgvI_Gy-9" value="AbstractEventExecutroGroup" style="swimlane;fontStyle=1;align=center;verticalAlign=top;childLayout=stackLayout;horizontal=1;startSize=26;horizontalStack=0;resizeParent=1;resizeParentMax=0;resizeLast=0;collapsible=1;marginBottom=0;" vertex="1" parent="1">
          <mxGeometry x="270" y="240" width="190" height="34" as="geometry" />
        </mxCell>
        <mxCell id="_11a3jBoYcO6FcgvI_Gy-10" value="" style="line;strokeWidth=1;fillColor=none;align=left;verticalAlign=middle;spacingTop=-1;spacingLeft=3;spacingRight=3;rotatable=0;labelPosition=right;points=[];portConstraint=eastwest;" vertex="1" parent="_11a3jBoYcO6FcgvI_Gy-9">
          <mxGeometry y="26" width="190" height="8" as="geometry" />
        </mxCell>
        <mxCell id="_11a3jBoYcO6FcgvI_Gy-26" style="edgeStyle=orthogonalEdgeStyle;rounded=0;orthogonalLoop=1;jettySize=auto;html=1;entryX=0.75;entryY=1;entryDx=0;entryDy=0;" edge="1" parent="1" source="_11a3jBoYcO6FcgvI_Gy-14" target="_11a3jBoYcO6FcgvI_Gy-15">
          <mxGeometry relative="1" as="geometry">
            <Array as="points">
              <mxPoint x="685" y="270" />
              <mxPoint x="565" y="270" />
            </Array>
          </mxGeometry>
        </mxCell>
        <mxCell id="_11a3jBoYcO6FcgvI_Gy-14" value="«interface»&lt;br&gt;EventLoopGroup" style="html=1;" vertex="1" parent="1">
          <mxGeometry x="630" y="300" width="110" height="30" as="geometry" />
        </mxCell>
        <mxCell id="_11a3jBoYcO6FcgvI_Gy-21" style="edgeStyle=orthogonalEdgeStyle;rounded=0;orthogonalLoop=1;jettySize=auto;html=1;exitX=0.25;exitY=0;exitDx=0;exitDy=0;entryX=0.5;entryY=1;entryDx=0;entryDy=0;endArrow=block;endFill=1;" edge="1" parent="1" source="_11a3jBoYcO6FcgvI_Gy-15" target="_11a3jBoYcO6FcgvI_Gy-16">
          <mxGeometry relative="1" as="geometry" />
        </mxCell>
        <mxCell id="_11a3jBoYcO6FcgvI_Gy-23" style="edgeStyle=orthogonalEdgeStyle;rounded=0;orthogonalLoop=1;jettySize=auto;html=1;exitX=0.75;exitY=0;exitDx=0;exitDy=0;entryX=0.5;entryY=1;entryDx=0;entryDy=0;endArrow=block;endFill=1;" edge="1" parent="1" source="_11a3jBoYcO6FcgvI_Gy-15" target="_11a3jBoYcO6FcgvI_Gy-22">
          <mxGeometry relative="1" as="geometry" />
        </mxCell>
        <mxCell id="_11a3jBoYcO6FcgvI_Gy-15" value="«interface»&lt;br&gt;EventExecutorGroup" style="html=1;" vertex="1" parent="1">
          <mxGeometry x="475" y="160" width="120" height="30" as="geometry" />
        </mxCell>
        <mxCell id="_11a3jBoYcO6FcgvI_Gy-20" style="edgeStyle=orthogonalEdgeStyle;rounded=0;orthogonalLoop=1;jettySize=auto;html=1;entryX=0.5;entryY=1;entryDx=0;entryDy=0;endArrow=block;endFill=1;" edge="1" parent="1" source="_11a3jBoYcO6FcgvI_Gy-16" target="_11a3jBoYcO6FcgvI_Gy-17">
          <mxGeometry relative="1" as="geometry" />
        </mxCell>
        <mxCell id="_11a3jBoYcO6FcgvI_Gy-16" value="«interface»&lt;br&gt;ScheduleExecutorService" style="html=1;" vertex="1" parent="1">
          <mxGeometry x="275" y="90" width="150" height="30" as="geometry" />
        </mxCell>
        <mxCell id="_11a3jBoYcO6FcgvI_Gy-19" style="edgeStyle=orthogonalEdgeStyle;rounded=0;orthogonalLoop=1;jettySize=auto;html=1;entryX=0.5;entryY=1;entryDx=0;entryDy=0;endArrow=block;endFill=1;" edge="1" parent="1" source="_11a3jBoYcO6FcgvI_Gy-17" target="_11a3jBoYcO6FcgvI_Gy-18">
          <mxGeometry relative="1" as="geometry" />
        </mxCell>
        <mxCell id="_11a3jBoYcO6FcgvI_Gy-17" value="«interface»&lt;br&gt;ExecutorService" style="html=1;" vertex="1" parent="1">
          <mxGeometry x="275" y="20" width="150" height="30" as="geometry" />
        </mxCell>
        <mxCell id="_11a3jBoYcO6FcgvI_Gy-18" value="«interface»&lt;br&gt;Executor" style="html=1;" vertex="1" parent="1">
          <mxGeometry x="275" y="-50" width="150" height="30" as="geometry" />
        </mxCell>
        <mxCell id="_11a3jBoYcO6FcgvI_Gy-22" value="«interface»&lt;br&gt;Iterable" style="html=1;" vertex="1" parent="1">
          <mxGeometry x="570" y="90" width="120" height="30" as="geometry" />
        </mxCell>
      </root>
    </mxGraphModel>
  </diagram>
</mxfile>
